Coordinates
version=1
nRows=19
nColumns=24
inDegrees=yes

Units are S.I. units (second, meters, Newtons, ...)
Angles are in degrees.

endheader
time	pelvis_tilt	pelvis_list	pelvis_rotation	pelvis_tx	pelvis_ty	pelvis_tz	hip_flexion_r	hip_adduction_r	hip_rotation_r	knee_angle_r	ankle_angle_r	subtalar_angle_r	mtp_angle_r	hip_flexion_l	hip_adduction_l	hip_rotation_l	knee_angle_l	ankle_angle_l	subtalar_angle_l	mtp_angle_l	lumbar_extension	lumbar_bending	lumbar_rotation
      1.27500000	     21.74764447	     -2.64777530	     -2.78334376	     -0.18778413	      0.97775898	     -0.00932535	     -1.99661608	     -1.31003574	    -14.01125742	    -28.32845599	     10.26615272	     -0.28461921	     31.37916295	    -34.03659174	      2.95196630	    -13.45336655	      1.28379290	     10.84305393	     12.93967900	     14.97765435	    -31.21540188	      0.24280819	     -4.25475512
      1.28000000	     21.93193031	     -2.81331469	     -2.47411715	     -0.18197407	      0.97759892	     -0.00951709	     -2.41263749	     -0.94378237	    -14.78696171	    -26.03537978	     10.09588356	      0.39278773	     31.50618246	    -34.75115911	      2.68658165	    -13.57697163	      1.54717996	     10.87687717	     13.32177538	     15.01286758	    -31.40190007	      0.54106605	     -4.45853975
      1.28500000	     22.11284572	     -2.95886031	     -2.18677692	     -0.17614495	      0.97737422	     -0.00966618	     -2.83266555	     -0.58281356	    -15.54463942	    -23.73979450	      9.89223079	      1.10789520	     31.67506876	    -35.45063213	      2.44585994	    -13.71557510	      1.78508696	     10.91353986	     13.70897916	     15.04758032	    -31.58007348	      0.81254128	     -4.64778934
      1.29000000	     22.28453337	     -3.10003984	     -1.90849633	     -0.17025777	      0.97708081	     -0.00972652	     -3.25273336	     -0.20564895	    -16.30778194	    -21.45062718	      9.64699650	      1.89147291	     31.87834251	    -36.14235682	      2.20730040	    -13.87684616	      2.02522452	     10.95496779	     14.09697115	     15.08141843	    -31.73774255	      1.06695696	     -4.84844128
      1.29500000	     22.43384443	     -3.21630620	     -1.64778006	     -0.16436334	      0.97671739	     -0.00972912	     -3.64836687	      0.16275070	    -17.04967780	    -19.18236378	      9.37199992	      2.73798868	     32.10058007	    -36.79486360	      1.99163735	    -14.02587074	      2.23440237	     10.99811737	     14.46423398	     15.11615490	    -31.86794078	      1.28885871	     -5.03773181
      1.30000000	     22.58636932	     -3.32286767	     -1.40096197	     -0.15846036	      0.97629388	     -0.00965023	     -4.04944027	      0.53945312	    -17.77722550	    -16.93953513	      9.06193894	      3.65127916	     32.33283888	    -37.44492934	      1.78555908	    -14.17734817	      2.43117057	     11.04414090	     14.82215205	     15.15288030	    -31.99866013	      1.48731574	     -5.21654823
      1.30500000	     22.72133155	     -3.41197385	     -1.17806946	     -0.15253201	      0.97579781	     -0.00951613	     -4.42657639	      0.90929009	    -18.47260992	    -14.74571277	      8.71579989	      4.62454110	     32.57801151	    -38.06891755	      1.60242091	    -14.32734317	      2.61027415	     11.09343405	     15.17286590	     15.19493189	    -32.10558780	      1.65776477	     -5.38609679
      1.31000000	     22.83580930	     -3.49007696	     -0.97503484	     -0.14659916	      0.97523065	     -0.00928430	     -4.77483618	      1.28420668	    -19.12967325	    -12.61182009	      8.33875328	      5.62897188	     32.79274025	    -38.66140891	      1.43140344	    -14.47106202	      2.76938669	     11.15060390	     15.46875708	     15.24230993	    -32.18823393	      1.80148901	     -5.53910841
      1.31500000	     22.93422851	     -3.52292418	     -0.80396961	     -0.14068565	      0.97459363	     -0.00898612	     -5.07938758	      1.60870256	    -19.76773417	    -10.58565904	      7.92843866	      6.75637249	     33.13697617	    -39.21344815	      1.30813243	    -14.62171539	      2.88365513	     11.20419957	     15.86398507	     15.32071080	    -32.25440200	      1.88289081	     -5.68789166
      1.32000000	     23.01199900	     -3.57950439	     -0.65625238	     -0.13478233	      0.97388976	     -0.00859986	     -5.36398666	      1.98084994	    -20.27286795	     -8.61128216	      7.50789069	      7.73499859	     33.28539527	    -39.75522331	      1.17493731	    -14.71937919	      3.01956566	     11.26335281	     16.03087110	     15.37883440	    -32.30015760	      1.97478525	     -5.80542313
      1.32500000	     23.06991832	     -3.61100908	     -0.53321208	     -0.12888267	      0.97312869	     -0.00815293	     -5.60286960	      2.32130856	    -20.75101220	     -6.76304887	      7.07038390	      8.79621898	     33.39949794	    -40.25691155	      1.07098919	    -14.83207335	      3.11923176	     11.32415012	     16.23640001	     15.45638257	    -32.32464924	      2.02688105	     -5.91231732
      1.33000000	     23.11293304	     -3.62163698	     -0.43532714	     -0.12299696	      0.97231470	     -0.00764744	     -5.80273994	      2.63407133	    -21.17570112	     -5.04107586	      6.64127245	      9.87635138	     33.48916741	    -40.73094855	      0.99251434	    -14.92779389	      3.19574351	     11.38625425	     16.45163113	     15.55860585	    -32.33287457	      2.04552175	     -6.01034262
      1.33500000	     23.13597398	     -3.62480600	     -0.35833755	     -0.11713192	      0.97146260	     -0.00709644	     -5.96276229	      2.93334525	    -21.52620282	     -3.43991364	      6.20598838	     10.91923175	     33.53607820	    -41.16956865	      0.92633303	    -15.00469307	      3.24500554	     11.44332544	     16.62137442	     15.67927421	    -32.32323443	      2.04735415	     -6.08991417
      1.34000000	     23.15574596	     -3.62696115	     -0.30243622	     -0.11128639	      0.97057975	     -0.00649379	     -6.10305025	      3.22475386	    -21.80811393	     -1.96106735	      5.76393389	     11.91725557	     33.54000685	    -41.59541209	      0.86917663	    -15.07662851	      3.27667319	     11.50209540	     16.75682601	     15.81644806	    -32.31310016	      2.03629333	     -6.14999561
      1.34500000	     23.16419462	     -3.62474748	     -0.25509775	     -0.10542939	      0.96967839	     -0.00587901	     -6.21701241	      3.49933306	    -22.04086660	     -0.61319092	      5.33507611	     12.88954706	     33.50571875	    -41.99578282	      0.81482780	    -15.13239268	      3.27906542	     11.55788820	     16.88354978	     15.98418187	    -32.28931897	      2.01911771	     -6.20233924
      1.35000000	     23.15695513	     -3.59660187	     -0.21389054	     -0.09959307	      0.96876663	     -0.00526896	     -6.28514017	      3.72577039	    -22.26514607	      0.57013712	      4.95501422	     13.91703864	     33.39774860	    -42.35123937	      0.77823440	    -15.17057629	      3.23107998	     11.59334933	     17.02876632	     16.29544093	    -32.25123055	      1.97618067	     -6.25994816
      1.35500000	     23.15739941	     -3.61933980	     -0.18428508	     -0.09371417	      0.96784499	     -0.00463016	     -6.37834213	      4.00570897	    -22.34022524	      1.68150064	      4.51794424	     14.67040100	     33.28684865	    -42.73425982	      0.70841061	    -15.20322236	      3.21245869	     11.64253940	     17.05534142	     16.48137786	    -32.21667601	      1.98073435	     -6.27236108
      1.36000000	     23.15997224	     -3.62337220	     -0.14739539	     -0.08783389	      0.96693958	     -0.00402963	     -6.44743750	      4.24165845	    -22.44405419	      2.62119044	      4.13392204	     15.48624530	     33.15036066	    -43.09070996	      0.64288874	    -15.22580420	      3.13805753	     11.69028008	     17.13492701	     16.72654881	    -32.18500194	      1.97472979	     -6.29975420
      1.36500000	     23.16591318	     -3.63351518	     -0.10801808	     -0.08192528	      0.96604718	     -0.00344900	     -6.50765144	      4.46633468	    -22.52208875	      3.41507635	      3.78124121	     16.24400087	     32.98093191	    -43.43911010	      0.56711507	    -15.24072780	      3.03817301	     11.72937104	     17.20250916	     17.02056981	    -32.15337304	      1.97906210	     -6.32069536
